# AST/ASF file generated using VICON BodyLanguage
# -----------------------------------------------
:version 1.10
:name VICON
:units
  mass 1.0
  length 0.45
  angle deg
:documentation
   .ast/.asf automatically generated from VICON data using
   VICON BodyBuilder and BodyLanguage model FoxedUp or BRILLIANT.MOD
:root
   order TX TY TZ RX RY RZ
   axis XYZ
   position 0 0 0  
   orientation 0 0 0 
:bonedata
  begin
     id 1 
     name lhipjoint
     direction 0.702568 -0.596508 0.388042 
     length 2.56661 
     axis 0 0 0  XYZ
  end
  begin
     id 2 
     name lfemur
     direction 0.34202 -0.939693 0  
     length 6.58374  
     axis 0 0 20  XYZ
    dof rx ry rz
    limits (-160.0 20.0)
           (-70.0 70.0)
           (-60.0 70.0)
  end
  begin
     id 3 
     name ltibia
     direction 0.34202 -0.939693 0   
     length 6.62538   
     axis 0 0 20   XYZ
    dof rx
    limits (-10.0 170.0)
  end
  begin
     id 4 
     name lfoot
     direction 0.10455 -0.287249 0.952133   
     length 2.26699   
     axis -90 7.62852e-016 20   XYZ
    dof rx rz
    limits (-45.0 90.0)
           (-70.0 20.0)
  end
  begin
     id 5 
     name ltoes
     direction 1.53572e-011 -4.22322e-011 1   
     length 1.12949   
     axis -90 7.62852e-016 20   XYZ
    dof rx
    limits (-90.0 20.0)
  end
  begin
     id 6 
     name rhipjoint
     direction -0.728055 -0.574632 0.373811   
     length 2.66432  
     axis 0 0 0  XYZ 
  end
  begin
     id 7 
     name rfemur
     direction -0.34202 -0.939693 0   
     length 6.66732   
     axis 0 0 -20   XYZ
    dof rx ry rz
    limits (-160.0 20.0)
           (-70.0 70.0)
           (-70.0 60.0)
  end
  begin
     id 8 
     name rtibia
     direction -0.34202 -0.939693 0   
     length 6.59288   
     axis 0 0 -20   XYZ
    dof rx
    limits (-10.0 170.0)
 end
 begin
     id 9 
     name rfoot
     direction -0.119193 -0.327479 0.93731   
     length 2.38061  
     axis -90 -7.62852e-016 -20   XYZ
    dof rx rz
    limits (-45.0 90.0)
           (-20.0 70.0)
  end
  begin
     id 10 
     name rtoes
     direction -1.53547e-011 -4.21827e-011 1   
     length 1.17899   
     axis -90 -7.62852e-016 -20   XYZ
    dof rx
    limits (-90.0 20.0)
  end
  begin
     id 11 
     name lowerback
     direction -0.000416114 0.999912 -0.0132284   
     length 2.12109   
     axis 0 0 0   XYZ
    dof rx ry rz
    limits (-20.0 45.0)
           (-30.0 30.0)
           (-30.0 30.0)
  end
  begin
     id 12 
     name upperback
     direction -0.00136371 0.99809 0.0617608   
     length 2.10067   
     axis 0 0 0   XYZ
    dof rx ry rz
    limits (-20.0 45.0)
           (-30.0 30.0)
           (-30.0 30.0)
  end
  begin
     id 13 
     name thorax
     direction -3.43026e-005 0.997776 0.0666515   
     length 2.10618   
     axis 0 0 0   XYZ
    dof rx ry rz
    limits (-20.0 45.0)
           (-30.0 30.0)
           (-30.0 30.0)
  end
  begin
     id 14 
     name lowerneck
     direction 0.0398646 0.998418 0.0396592   
     length 1.83817   
     axis 0 0 0   XYZ
    dof rx ry rz
    limits (-20.0 45.0)
           (-30.0 30.0)
           (-30.0 30.0)
  end
  begin
     id 15 
     name upperneck
     direction -0.0367268 0.961527 -0.272244   
     length 1.81975   
     axis 0 0 0   XYZ
    dof rx ry rz
    limits (-20.0 45.0)
           (-30.0 30.0)
           (-30.0 30.0)
  end
  begin
     id 16
     name head
     direction -0.0182665 0.99536 -0.0944669  
     length 1.86026  
     axis 0 0 0   XYZ
    dof rx ry rz
    limits (-20.0 45.0)
           (-30.0 30.0)
           (-30.0 30.0)
  end
  begin
     id 17 
     name lclavicle
     direction 0.924239 0.361045 0.124212  
     length 3.26878  
     axis 0 0 0   XYZ
    dof ry rz
    limits (-20.0 10.0)
           (0.0 20.0)
  end
  begin
     id 18 
     name lhumerus
     direction 1 -4.48968e-011 -2.56583e-027   
     length 4.58538   
     axis 180 -30 -90   XYZ
    dof rx ry rz
    limits (-60.0 90.0)
           (-90.0 90.0)
           (-90.0 90.0)
  end
  begin
     id 19
     name lradius
     direction 1 -4.4898e-011 -5.50375e-027   
     length 2.68935   
     axis 180 -30 -90   XYZ
    dof rx
    limits (-10.0 170.0)
  end
  begin
     id 20
     name lwrist
     direction 1 -4.48939e-011 -1.48955e-026   
     length 1.34468   
     axis 9.0955e-015 90 90   XYZ
    dof ry
    limits (-180.0 0.0)
 end
  begin
     id 21 
     name lhand
     direction 1 -4.48936e-011 -2.97907e-026   
     length 0.585058   
     axis 1.90115e-014 90 90   XYZ
    dof rx rz
    limits (-90.0 90.0)
           (-45.0 45.0)
  end
  begin
     id 22 
     name lfingers
     direction 1 -4.49082e-011 -5.96235e-026   
     length 0.471689   
     axis 3.80223e-014 90 90   XYZ
    dof rx
    limits (0.0 90.0)
  end
  begin
     id 23
     name lthumb
     direction 0.707107 -6.3489e-011 0.707107   
     length 0.677253   
     axis -90 45 -3.84942e-014   XYZ
    dof rx rz
    limits (-45.0 45.0)
           (-45.0 45.0)
  end
  begin
     id 24 
     name rclavicle
     direction -0.923098 0.371783 0.0983239   
     length 3.19656  
     axis 0 0 0   XYZ 
    dof ry rz
    limits (-10.0 20.0)
           (-20.0 0.0)
  end
  begin
     id 25 
     name rhumerus
     direction -1 -4.48976e-011 -2.5492e-027  
     length 4.4745   
     axis 180 30 90   XYZ
    dof rx ry rz
    limits (-90.0 60.0)
           (-90.0 90.0)
           (-90.0 90.0)
  end
  begin
     id 26 
     name rradius
     direction -1 -4.48941e-011 -4.36555e-027   
     length 2.93896   
     axis 180 30 90   XYZ
    dof rx
    limits (-10.0 170.0)
  end
  begin
     id 27 
     name rwrist
     direction -1 -4.49044e-011 -1.49032e-026   
     length 1.46948   
     axis 9.0955e-015 -90 -90   XYZ
    dof ry
    limits (-180.0 0.0)
  end
  begin
     id 28
     name rhand
     direction -1 -4.48826e-011 -2.97749e-026   
     length 0.405092   
     axis 1.90115e-014 -90 -90   XYZ
    dof rx rz
    limits (-90.0 90.0)
           (-45.0 45.0)
  end
  begin
     id 29
     name rfingers
     direction -1 -4.49209e-011 -5.96602e-026   
     length 0.326596   
     axis 3.80223e-014 -90 -90   XYZ
    dof rx
    limits (0.0 90.0)
  end
  begin
     id 30
     name rthumb
     direction -0.707107 -6.34776e-011 0.707107   
     length 0.468928   
     axis -90 -45 3.84942e-014   XYZ
    dof rx rz
    limits (-45.0 45.0)
           (-45.0 45.0)
  end
:hierarchy
  begin
    root lhipjoint rhipjoint lowerback
    lhipjoint lfemur
    lfemur ltibia
    ltibia lfoot
    lfoot ltoes
    rhipjoint rfemur
    rfemur rtibia
    rtibia rfoot
    rfoot rtoes
    lowerback upperback
    upperback thorax
    thorax lowerneck lclavicle rclavicle
    lowerneck upperneck
    upperneck head
    lclavicle lhumerus
    lhumerus lradius
    lradius lwrist
    lwrist lhand lthumb
    lhand lfingers
    rclavicle rhumerus
    rhumerus rradius
    rradius rwrist
    rwrist rhand rthumb
    rhand rfingers
  end

#!OML:ASF H:\Punching\Project 1\Capture day 1\Session 1\female.ASF
:FULLY-SPECIFIED
:DEGREES
909
root 0.681399 15.5555 3.60997 -27.6058 19.7507 -11.1789
lowerback 10.3917 -4.12647 -0.46288
upperback 3.64953 -5.28891 8.7326
thorax -1.07924 -2.72389 10.1347
lowerneck -6.8169 1.21916 12.2161
upperneck 44.4983 -0.02131 -2.11481
head 17.7636 1.99692 -3.13568
rclavicle -7.55382e-015 8.74653e-014
rhumerus -14.1478 7.49559 -63.3618
rradius 122.04
rwrist -6.9459
rhand -37.506 16.1319
rfingers 7.12502
rthumb -10.5628 -13.5826
lclavicle -7.55382e-015 8.74653e-014
lhumerus 8.55625 -32.5277 76.3638
lradius 134.011
lwrist -1.48689
lhand -30.539 0.0581847
lfingers 7.12502
lthumb -3.83797 30.0034
rfemur -122.383 -15.1994 11.2614
rtibia 89.5353
rfoot 14.1491 -1.36499
rtoes -25.2476
lfemur 17.5201 -8.32963 -21.4073
ltibia 23.8241
lfoot -11.0039 3.96128
ltoes 18.511
910
root 0.693306 15.5585 3.63332 -28.1651 20.0737 -11.6438
lowerback 10.6129 -4.24434 -0.353855
upperback 3.92718 -5.43581 8.97664
thorax -0.86325 -2.81274 10.3661
lowerneck -6.79288 1.17642 12.2814
upperneck 44.6832 -0.147491 -2.01588
head 17.8635 1.98374 -3.12298
rclavicle 5.96354e-015 -1.11319e-014
rhumerus -13.6866 7.52393 -63.3034
rradius 122.626
rwrist -7.22881
rhand -37.6511 15.9534
rfingers 7.12502
rthumb -10.7027 -13.754
lclavicle 5.96354e-015 -1.11319e-014
lhumerus 8.16669 -33.0872 77.4478
lradius 134.306
lwrist -1.02832
lhand -30.384 -0.14039
lfingers 7.12502
lthumb -3.68825 29.8074
rfemur -121.959 -15.8979 9.98838
rtibia 83.9102
rfoot 15.4537 -2.48421
rtoes -25.8008
lfemur 17.9389 -8.32196 -21.0273
ltibia 23.8637
lfoot -10.976 3.64881
ltoes 18.5077
911
root 0.704111 15.557 3.65068 -28.6751 20.4118 -11.9197
lowerback 10.8916 -4.33079 -0.405225
upperback 4.22783 -5.55831 9.15609
thorax -0.647853 -2.89217 10.6229
lowerneck -6.7806 1.14579 12.382
upperneck 44.8123 -0.255767 -1.93901
head 17.9349 1.97713 -3.12308
rclavicle 6.83819e-014 -9.54166e-015
rhumerus -13.1956 7.60246 -63.2127
rradius 123.255
rwrist -7.50416
rhand -37.6461 14.6742
rfingers 7.12502
rthumb -10.698 -15.0334
lclavicle 6.83819e-014 -9.54166e-015
lhumerus 7.85254 -33.6128 78.389
lradius 134.566
lwrist -0.776992
lhand -30.1959 -0.300096
lfingers 7.12502
lthumb -3.50667 29.6508
rfemur -121.024 -16.64 8.24711
rtibia 77.9129
rfoot 16.4261 -3.91484
rtoes -25.7701
lfemur 18.425 -8.3623 -20.8911
ltibia 23.7706
lfoot -10.8986 3.42666
ltoes 18.5143
912
root 0.713232 15.553 3.66234 -29.0825 20.7633 -12.001
lowerback 11.1829 -4.38342 -0.619477
upperback 4.52789 -5.65487 9.26985
thorax -0.433249 -2.96172 10.9017
lowerneck -6.77638 1.12724 12.5173
upperneck 44.9062 -0.346719 -1.88161
head 17.9893 1.97836 -3.1353
rclavicle 1.63003e-014 -4.92986e-014
rhumerus -12.6778 7.68556 -63.0976
rradius 123.84
rwrist -7.83354
rhand -37.5009 13.1068
rfingers 7.12502
rthumb -10.5579 -16.6081
lclavicle 1.63003e-014 -4.92986e-014
lhumerus 7.59617 -34.0805 79.1866
lradius 134.775
lwrist -0.700177
lhand -29.9563 -0.43334
lfingers 7.12502
lthumb -3.27522 29.5212
rfemur -119.592 -17.4156 5.92085
rtibia 71.6112
rfoot 17.0202 -5.57736
rtoes -25.3899
lfemur 18.9474 -8.42672 -20.9867
ltibia 23.5074
lfoot -10.7723 3.2976
ltoes 18.5765
913
root 0.720804 15.5479 3.66924 -29.349 21.1488 -11.8938
lowerback 11.4287 -4.40875 -0.990488
upperback 4.81281 -5.73624 9.31487
thorax -0.202207 -3.02768 11.1908
lowerneck -6.78056 1.11918 12.6811
upperneck 44.9784 -0.426846 -1.83135
head 18.0346 1.98614 -3.15397
rclavicle -1.47101e-014 -4.6118e-014
rhumerus -12.1393 7.7462 -62.9736
rradius 124.337
rwrist -8.23685
rhand -37.2827 11.7713
rfingers 7.12502
rthumb -10.3474 -17.9541
lclavicle -1.47101e-014 -4.6118e-014
lhumerus 7.3865 -34.4688 79.8376
lradius 134.976
lwrist -0.649709
lhand -29.5566 -0.450562
lfingers 7.12502
lthumb -2.88926 29.5096
rfemur -117.679 -18.2489 2.86092
rtibia 65.1367
rfoot 17.2453 -7.48719
rtoes -24.7688
lfemur 19.4726 -8.51034 -21.305
ltibia 23.0614
lfoot -10.6079 3.2607
ltoes 18.7098
914
root 0.727332 15.5423 3.67265 -29.4526 21.5676 -11.656
lowerback 11.5623 -4.42184 -1.45416
upperback 5.06683 -5.81697 9.30177
thorax 0.0620235 -3.09689 11.4591
lowerneck -6.77811 1.11875 12.8676
upperneck 45.0346 -0.499389 -1.78103
head 18.0699 1.99945 -3.17508
rclavicle -4.45278e-014 5.08889e-014
rhumerus -11.6008 7.77857 -62.8633
rradius 124.724
rwrist -8.68986
rhand -37.0197 10.8115
rfingers 7.12502
rthumb -10.0937 -18.9264
lclavicle -4.45278e-014 5.08889e-014
lhumerus 7.1952 -34.7818 80.3507
lradius 135.156
lwrist -0.574169
lhand -29.02 -0.425231
lfingers 7.12502
lthumb -2.37098 29.5413
rfemur -115.307 -19.1512 -1.04686
rtibia 58.6868
rfoot 17.271 -9.73278
rtoes -24.3742
lfemur 19.948 -8.61137 -21.7738
ltibia 22.4612
lfoot -10.4368 3.31255
ltoes 18.8976
915
root 0.733446 15.5356 3.67501 -29.4037 22.0295 -11.3601
lowerback 11.5474 -4.4474 -1.95279
upperback 5.28755 -5.9229 9.2535
thorax 0.378625 -3.18247 11.6966
lowerneck -6.77983 1.12741 13.0567
upperneck 45.0857 -0.559326 -1.73097
head 18.1048 2.01762 -3.19482
rclavicle 5.02925e-014 -1.59028e-015
rhumerus -11.0563 7.80642 -62.7724
rradius 125.007
rwrist -9.14238
rhand -36.8536 10.4536
rfingers 7.12502
rthumb -9.93345 -19.2921
lclavicle 5.02925e-014 -1.59028e-015
lhumerus 7.03159 -35.0021 80.7217
lradius 135.28
lwrist -0.441308
lhand -28.4422 -0.392493
lfingers 7.12502
lthumb -1.813 29.5796
rfemur -112.465 -20.1361 -5.93199
rtibia 52.5102
rfoot 17.2751 -12.6441
rtoes -23.9503
lfemur 20.3316 -8.74507 -22.3187
ltibia 21.7725
lfoot -10.3051 3.43343
ltoes 19.1528
916
root 0.739625 15.5272 3.67809 -29.2161 22.5324 -11.068
lowerback 11.3585 -4.50017 -2.42104
upperback 5.4743 -6.06465 9.18404
thorax 0.757738 -3.28863 11.8772
lowerneck -6.78679 1.14171 13.2426
upperneck 45.1282 -0.610967 -1.67994
head 18.1368 2.03778 -3.21213
rclavicle -2.32578e-014 -3.81667e-014
rhumerus -10.5175 7.81686 -62.709
rradius 125.179
rwrist -9.57185
rhand -36.7535 10.7072
rfingers 7.12502
rthumb -9.83682 -19.043
lclavicle -2.32578e-014 -3.81667e-014
lhumerus 6.88829 -35.1592 80.964
lradius 135.349
lwrist -0.218838
lhand -27.8384 -0.343301
lfingers 7.12502
lthumb -1.2298 29.6329
rfemur -109.195 -21.1625 -11.7808
rtibia 46.8931
rfoot 17.3661 -16.5049
rtoes -23.393
lfemur 20.5752 -8.92047 -22.8692
ltibia 21.0877
lfoot -10.2581 3.60493
ltoes 19.4553
917
root 0.745727 15.5166 3.68315 -28.9317 23.0608 -10.8423
lowerback 11.0285 -4.58631 -2.80274
upperback 5.61779 -6.24044 9.11508
thorax 1.16759 -3.41114 11.995
lowerneck -6.79158 1.15466 13.4026
upperneck 45.1696 -0.660837 -1.62135
head 18.1672 2.05499 -3.22092
rclavicle -3.67752e-014 -4.45278e-014
rhumerus -10.0357 7.88755 -62.679
rradius 125.33
rwrist -9.80647
rhand -36.7231 10.7029
rfingers 7.12502
rthumb -9.80749 -19.0487
lclavicle -3.67752e-014 -4.45278e-014
lhumerus 6.75306 -35.2899 81.1035
lradius 135.349
lwrist 0.0689112
lhand -27.2861 -0.245812
lfingers 7.12502
lthumb -0.696396 29.7328
rfemur -105.65 -22.132 -18.256
rtibia 42.1279
rfoot 17.4824 -21.2854
rtoes -22.3267
lfemur 20.6447 -9.14422 -23.3523
ltibia 20.5202
lfoot -10.3351 3.80971
ltoes 19.7852
918
root 0.751324 15.5048 3.68892 -28.6096 23.5967 -10.7158
lowerback 10.6183 -4.70082 -3.07532
upperback 5.73068 -6.43992 9.0611
thorax 1.5851 -3.54288 12.0572
lowerneck -6.80814 1.16458 13.5282
upperneck 45.2091 -0.71059 -1.55806
head 18.1986 2.06678 -3.22143
rclavicle 2.98177e-015 0
rhumerus -9.60382 7.9794 -62.6659
rradius 125.439
rwrist -9.89958
rhand -36.691 10.7319
rfingers 7.12502
rthumb -9.77648 -19.0211
lclavicle 2.98177e-015 0
lhumerus 6.64723 -35.3916 81.1538
lradius 135.281
lwrist 0.456191
lhand -26.7712 -0.131663
lfingers 7.12502
lthumb -0.199087 29.848
rfemur -102.278 -22.9507 -24.4032
rtibia 38.4792
rfoot 17.2956 -26.334
rtoes -20.439
lfemur 20.5285 -9.4037 -23.7253
ltibia 20.1723
lfoot -10.543 4.01382
ltoes 20.0868
919
root 0.755513 15.4918 3.69479 -28.3006 24.1037 -10.704
lowerback 10.2072 -4.82536 -3.2255
upperback 5.81285 -6.63644 9.03487
thorax 1.95993 -3.66701 12.0773
lowerneck -6.84041 1.16624 13.6046
upperneck 45.2513 -0.766952 -1.48591
head 18.2338 2.06899 -3.2102
rclavicle -1.88845e-014 -3.02153e-014
rhumerus -9.24981 8.08618 -62.6548
rradius 125.525
rwrist -9.85101
rhand -36.6649 10.7552
rfingers 7.12502
rthumb -9.75137 -18.999
lclavicle -1.88845e-014 -3.02153e-014
lhumerus 6.55256 -35.4748 81.1567
lradius 135.164
lwrist 0.950361
lhand -26.2531 -0.008783
lfingers 7.12502
lthumb 0.301321 29.9707
rfemur -99.7001 -23.6286 -29.0261
rtibia 36.1277
rfoot 16.8057 -30.441
rtoes -18.408
lfemur 20.2229 -9.67437 -23.9525
ltibia 20.131
lfoot -10.8769 4.18572
ltoes 20.339
920
root 0.757368 15.4787 3.69926 -28.0642 24.5346 -10.8069
lowerback 9.88388 -4.93619 -3.2575
upperback 5.87598 -6.79905 9.04697
thorax 2.24975 -3.76608 12.0784
lowerneck -6.89032 1.15693 13.6263
upperneck 45.2936 -0.830593 -1.41001
head 18.2711 2.05969 -3.18877
rclavicle -1.78906e-015 -1.11319e-014
rhumerus -8.98385 8.20047 -62.626
rradius 125.605
rwrist -9.6865
rhand -36.6293 10.776
rfingers 7.12502
rthumb -9.71698 -18.9798
lclavicle -1.78906e-015 -1.11319e-014
lhumerus 6.46269 -35.5339 81.1425
lradius 135.019
lwrist 1.52495
lhand -25.6929 0.11951
lfingers 7.12502
lthumb 0.842387 30.0976
rfemur -98.4205 -24.2384 -31.2036
rtibia 35.1163
rfoot 16.4903 -32.5338
rtoes -17.0228
lfemur 19.7678 -9.91118 -24.0102
ltibia 20.4212
lfoot -11.3031 4.29022
ltoes 20.5238
921
root 0.756411 15.4652 3.70203 -27.9226 24.8473 -11.0075
lowerback 9.69444 -5.01447 -3.18113
upperback 5.92686 -6.90407 9.10114
thorax 2.4318 -3.82744 12.0758
lowerneck -6.95057 1.13517 13.5935
upperneck 45.3299 -0.899749 -1.33593
head 18.3046 2.03847 -3.15942
rclavicle 4.09496e-014 -6.67916e-014
rhumerus -8.8026 8.31944 -62.564
rradius 125.692
rwrist -9.44759
rhand -36.5805 10.8013
rfingers 7.12502
rthumb -9.66991 -18.9568
lclavicle 4.09496e-014 -6.67916e-014
lhumerus 6.36936 -35.561 81.129
lradius 134.859
lwrist 2.11695
lhand -25.0898 0.266559
lfingers 7.12502
lthumb 1.4248 30.2415
rfemur -98.5131 -24.7865 -30.936
rtibia 35.341
rfoot 16.7168 -32.4911
rtoes -16.9482
lfemur 19.1924 -10.0719 -23.8929
ltibia 21.0358
lfoot -11.792 4.29752
ltoes 20.6393
922
root 0.752929 15.452 3.70197 -27.8849 25.0254 -11.2664
lowerback 9.66756 -5.05099 -3.03063
upperback 5.97721 -6.9423 9.1911
thorax 2.50393 -3.84797 12.0861
lowerneck -7.01247 1.1055 13.5156
upperneck 45.3491 -0.961959 -1.27707
head 18.3261 2.00936 -3.12808
rclavicle 1.19867e-013 -3.33958e-014
rhumerus -8.6899 8.44278 -62.4581
rradius 125.794
rwrist -9.1822
rhand -36.5059 10.8317
rfingers 7.12502
rthumb -9.59792 -18.9297
lclavicle 1.19867e-013 -3.33958e-014
lhumerus 6.263 -35.5177 81.1342
lradius 134.727
lwrist 2.7384
lhand -24.3391 0.415789
lfingers 7.12502
lthumb 2.1499 30.3847
rfemur -99.7452 -25.1899 -28.6931
rtibia 36.6032
rfoot 17.4157 -30.7016
rtoes -18.1208
lfemur 18.5608 -10.1297 -23.6349
ltibia 21.8959
lfoot -12.2929 4.20792
ltoes 20.6973
923
root 0.747719 15.4384 3.70022 -27.9142 25.0587 -11.5486
lowerback 9.76314 -5.0449 -2.82616
upperback 6.03175 -6.915 9.31007
thorax 2.49523 -3.83039 12.1093
lowerneck -7.06949 1.0736 13.4063
upperneck 45.3443 -1.00674 -1.24219
head 18.3307 1.97713 -3.09957
rclavicle 2.3059e-014 6.04305e-014
rhumerus -8.61383 8.56831 -62.3018
rradius 125.916
rwrist -8.94338
rhand -36.4073 10.8867
rfingers 7.12502
rthumb -9.50276 -18.879
lclavicle 2.3059e-014 6.04305e-014
lhumerus 6.15914 -35.3927 81.1429
lradius 134.627
lwrist 3.31805
lhand -23.4797 0.578139
lfingers 7.12502
lthumb 2.97989 30.5371
rfemur -101.738 -25.3601 -25.2038
rtibia 38.6917
rfoot 18.3131 -27.7822
rtoes -20.0994
lfemur 17.9128 -10.072 -23.267
ltibia 22.8931
lfoot -12.7739 4.03349
ltoes 20.737
